<?xml version="1.0" encoding="utf-8"?>
<svg width="800px" height="800px" viewBox="0 0 24 24" fill="none" xmlns="http://www.w3.org/2000/svg">
  <path d="M 19.436 3.878 C 19.436 4.12 19.408 4.357 19.356 4.585 C 19.581 4.532 19.816 4.505 20.056 4.505 C 21.767 4.505 23.154 5.907 23.154 7.638 C 23.154 9.369 21.767 10.772 20.056 10.772 C 19.115 10.772 18.123 10.567 17.281 10.989 C 16.298 11.482 15.396 12.137 14.611 12.93 L 12.894 14.667 C 12.11 15.46 11.463 16.374 10.975 17.368 C 10.558 18.22 10.76 19.222 10.76 20.174 C 10.76 21.905 9.373 23.308 7.662 23.308 C 5.951 23.308 4.564 21.905 4.564 20.174 C 4.564 19.93 4.592 19.695 4.643 19.467 C 4.419 19.519 4.184 19.547 3.944 19.547 C 2.233 19.547 0.846 18.144 0.846 16.414 C 0.846 14.682 2.233 13.279 3.944 13.279 C 4.885 13.279 5.877 13.485 6.719 13.061 C 7.702 12.568 8.604 11.915 9.389 11.121 L 11.106 9.385 C 11.89 8.591 12.537 7.678 13.024 6.685 C 13.442 5.832 13.24 4.829 13.24 3.878 C 13.24 2.147 14.627 0.744 16.338 0.744 C 18.049 0.744 19.436 2.147 19.436 3.878 Z" stroke="#000000" stroke-width="1.5" stroke-linecap="round" stroke-linejoin="round" style=""/>
</svg>