<?xml version="1.0" encoding="utf-8"?>
<svg fill="#000000" height="800px" width="800px" version="1.1" id="Capa_1" xmlns="http://www.w3.org/2000/svg" viewBox="0 0 400 178" preserveAspectRatio="xMidYMax">
  <path d="M 299.459 107.505 C 299.459 107.505 283.026 35.732 282.752 35.149 C 279.323 24.455 265.674 15.87 242.027 9.584 C 218.784 3.403 188.034 0 155.441 0 C 122.849 0 92.098 3.403 68.855 9.584 C 45.198 15.874 31.547 24.463 28.126 35.164 C 27.854 35.742 11.424 107.506 11.424 107.506 C 4.778 109.814 0 116.117 0 123.55 C 0 142.34 17.893 156.625 53.18 166.008 C 80.713 173.328 117.03 177.361 155.441 177.361 C 155.443 177.361 155.445 177.361 155.447 177.361 C 193.857 177.361 230.171 173.33 257.702 166.009 C 292.989 156.626 310.882 142.341 310.882 123.55 C 310.883 116.117 306.105 109.814 299.459 107.505 Z M 211.452 122.436 C 211.452 130.423 204.954 136.922 196.967 136.922 C 189.212 136.922 182.86 130.798 182.496 123.132 L 128.386 123.132 C 128.021 130.798 121.671 136.922 113.917 136.922 C 105.929 136.922 99.431 130.423 99.431 122.436 C 99.431 118.653 100.889 115.204 103.273 112.621 C 100.889 110.038 99.431 106.589 99.431 102.806 C 99.431 94.819 105.93 88.32 113.917 88.32 C 121.671 88.32 128.021 94.444 128.386 102.11 L 182.496 102.11 C 182.86 94.444 189.212 88.32 196.967 88.32 C 204.954 88.32 211.452 94.819 211.452 102.806 C 211.452 106.589 209.994 110.038 207.61 112.621 C 209.994 115.204 211.452 118.653 211.452 122.436 Z M 235.357 53.238 C 213.812 58.686 185.431 61.687 155.441 61.687 C 125.451 61.687 97.07 58.686 75.525 53.238 C 54.803 47.998 47.513 42.24 45.729 39.856 C 47.529 37.431 54.833 31.679 75.529 26.447 C 97.073 20.999 125.453 17.999 155.441 17.999 C 185.428 17.999 213.808 20.999 235.352 26.447 C 256.006 31.67 263.322 37.408 265.141 39.842 C 263.329 42.271 256.023 48.011 235.357 53.238 Z"/>
</svg>